<svg width="167" height="60" viewBox="0 0 167 60" fill="none" xmlns="http://www.w3.org/2000/svg">
<path d="M29.5046 60C45.7995 60 59.0092 46.5686 59.0092 30C59.0092 13.4314 45.7995 0 29.5046 0C13.2096 0 0 13.4314 0 30C0 46.5686 13.2096 60 29.5046 60Z" fill="#FA4F09"/>
<path fill-rule="evenodd" clip-rule="evenodd" d="M24.0737 35.9323L25.2322 36.6099L27.3175 40.2907L21.728 43.589C21.236 43.8828 21.0616 44.5314 21.3519 45.0317L21.6122 45.5029L21.4677 45.5625C21.1788 45.7385 21.0915 46.1224 21.2646 46.4453L22.4231 48.4769H16.2544L23.2328 36.1691C23.4072 35.8726 23.7834 35.7853 24.0737 35.9323Z" fill="white"/>
<path fill-rule="evenodd" clip-rule="evenodd" d="M24.2173 35.6679L24.9124 36.0794L24.449 35.2549L24.2173 35.6679Z" fill="white"/>
<path fill-rule="evenodd" clip-rule="evenodd" d="M35.2511 34.3423L40.29 25.4798L32.5579 20.9453L30.125 25.2746L31.7756 28.16L34.1212 24.008L36.9017 25.6281L33.6293 31.4279L35.2511 34.3423Z" fill="white"/>
<path fill-rule="evenodd" clip-rule="evenodd" d="M33.7455 19.473L40.9855 23.7138C41.1015 23.8024 41.1587 23.9493 41.0728 24.0962L40.4363 25.2145L32.7314 20.6801L33.368 19.5618C33.4266 19.4148 33.6011 19.3843 33.7455 19.473Z" fill="white"/>
<path fill-rule="evenodd" clip-rule="evenodd" d="M36.1186 18.6777L40.4623 21.2388C40.6069 21.297 40.6354 21.4743 40.5782 21.5921L39.9117 22.741L35.1045 19.8848L35.741 18.7664C35.7996 18.6487 35.9741 18.5904 36.1186 18.6777Z" fill="white"/>
<path fill-rule="evenodd" clip-rule="evenodd" d="M37.0464 18.8558L39.8268 20.5049L43.4468 14.1148L40.6664 12.4961L37.0464 18.8558Z" fill="white"/>
<path fill-rule="evenodd" clip-rule="evenodd" d="M41.0708 11.1104C42.2008 11.7576 43.3007 12.4061 44.4305 13.0534C44.2574 13.2294 44.1117 13.3471 43.9672 13.4954C43.8514 13.6132 43.7069 13.731 43.591 13.8488C42.6642 13.3194 41.7374 12.7595 40.8105 12.2287C40.8678 12.0527 40.8978 11.9045 40.9264 11.7285C40.9851 11.5234 41.0422 11.3168 41.0708 11.1104Z" fill="white"/>
<path fill-rule="evenodd" clip-rule="evenodd" d="M32.6148 22.7711L38.725 26.3341C38.8408 26.4227 39.0139 26.3632 39.1011 26.2454L39.5646 25.4207L32.991 21.564L32.5276 22.3885C32.4417 22.505 32.499 22.6823 32.6148 22.7711Z" fill="white"/>
<path fill-rule="evenodd" clip-rule="evenodd" d="M42.7517 14.2029C42.839 14.232 42.839 14.3206 42.809 14.3789L39.7683 19.767C39.7396 19.8252 39.6524 19.8252 39.5952 19.7961C39.5366 19.767 39.508 19.6783 39.5366 19.6187L42.5773 14.2596C42.6359 14.2029 42.6932 14.1737 42.7517 14.2029Z" fill="white"/>
<path fill-rule="evenodd" clip-rule="evenodd" d="M35.6557 35.9323L21.958 43.9703C21.669 44.1463 21.5817 44.5302 21.7262 44.7948L23.8402 48.4756H25.2591L23.1737 44.7948C23.0865 44.6479 23.145 44.4414 23.2896 44.3527C23.4341 44.2641 23.6371 44.2945 23.7243 44.4705L26.0113 48.4743H43.4737L36.4654 36.1665C36.2936 35.8727 35.9461 35.7854 35.6557 35.9323Z" fill="white"/>
<path fill-rule="evenodd" clip-rule="evenodd" d="M21.9593 45.8267L21.6989 45.9737C21.6417 46.0332 21.6117 46.1206 21.6417 46.2092L22.9446 48.4764H23.4953L21.9593 45.8267Z" fill="white"/>
<path fill-rule="evenodd" clip-rule="evenodd" d="M35.511 35.6685L27.7789 40.2031L19.439 25.4798L27.1424 20.9453L35.511 35.6685Z" fill="white"/>
<path fill-rule="evenodd" clip-rule="evenodd" d="M25.9836 19.473L18.7435 23.7138C18.5991 23.8024 18.5704 23.9493 18.6277 24.0962L19.2642 25.2145L26.9963 20.6801L26.3598 19.5618C26.2726 19.4148 26.0995 19.3843 25.9836 19.473Z" fill="white"/>
<path fill-rule="evenodd" clip-rule="evenodd" d="M23.6099 18.6777L19.2375 21.2401C19.1216 21.2984 19.0643 21.4757 19.1502 21.5935L19.7867 22.7424L24.6225 19.8861L23.986 18.7678C23.8988 18.6486 23.7257 18.5904 23.6099 18.6777Z" fill="white"/>
<path fill-rule="evenodd" clip-rule="evenodd" d="M22.6546 18.8558L19.8742 20.5049L16.2827 14.1148L19.0345 12.4961L22.6546 18.8558Z" fill="white"/>
<path fill-rule="evenodd" clip-rule="evenodd" d="M18.6286 11.1104C17.5286 11.7576 16.3987 12.4061 15.2988 13.0534C15.4433 13.2294 15.5878 13.3471 15.7336 13.4954C15.8781 13.6132 15.9939 13.731 16.1098 13.8488C17.0366 13.3194 17.9634 12.7595 18.8902 12.2287C18.8616 12.0527 18.803 11.9045 18.7744 11.7285C18.7444 11.5234 18.6872 11.3168 18.6286 11.1104Z" fill="white"/>
<path fill-rule="evenodd" clip-rule="evenodd" d="M25.5783 24.0073L22.7993 25.6274L27.3747 33.6653L30.1252 32.0162L25.5783 24.0073Z" fill="#FA4F09"/>
<path fill-rule="evenodd" clip-rule="evenodd" d="M27.0842 22.7711L21.0028 26.3341C20.8582 26.4227 20.6838 26.3632 20.6265 26.2454L20.1631 25.4207L26.7367 21.564L27.2001 22.3885C27.2587 22.505 27.2301 22.6823 27.0842 22.7711Z" fill="white"/>
<path fill-rule="evenodd" clip-rule="evenodd" d="M33.6001 32.9302L26.3886 37.1404L25.3174 35.2265L32.4988 30.9858L33.6001 32.9302Z" fill="white"/>
<path fill-rule="evenodd" clip-rule="evenodd" d="M16.949 14.2023C16.8917 14.2314 16.8617 14.3202 16.8917 14.3783L19.9611 19.7666C19.9897 19.8248 20.0769 19.8248 20.1342 19.7957C20.1914 19.7666 20.2214 19.6779 20.1628 19.6182L17.1221 14.2606C17.0935 14.2023 17.0076 14.1732 16.949 14.2023Z" fill="white"/>
<path d="M85.5986 0H95.3574V25.3222C95.3455 27.7269 94.746 29.8431 93.5588 31.6707C92.3834 33.4863 90.757 34.9051 88.6794 35.9272C86.6136 36.9372 84.2333 37.4422 81.5383 37.4422C79.1996 37.4422 77.0626 37.0334 75.1274 36.2157C73.1923 35.3861 71.6489 34.0875 70.4974 32.32C69.3458 30.5405 68.7759 28.2319 68.7878 25.3943H78.6891C78.7247 26.3201 78.879 27.1017 79.1521 27.739C79.437 28.3762 79.8288 28.8572 80.3274 29.1818C80.8379 29.4944 81.4552 29.6507 82.1794 29.6507C82.9155 29.6507 83.5328 29.4884 84.0315 29.1638C84.542 28.8391 84.9278 28.3582 85.189 27.7209C85.4502 27.0716 85.5867 26.272 85.5986 25.3222V0Z" fill="white"/>
<path d="M131.037 0V36.8632H122.837L109.76 17.4956H109.548V36.8632H99.7222V0H108.063L120.928 19.2956H121.211V0H131.037Z" fill="white"/>
<path d="M135.972 36.8632V0H151.651C154.347 0 156.706 0.497989 158.728 1.49397C160.75 2.48994 162.323 3.92391 163.446 5.79587C164.569 7.66783 165.131 9.91178 165.131 12.5277C165.131 15.1677 164.552 17.3936 163.393 19.2056C162.246 21.0175 160.632 22.3855 158.551 23.3095C156.481 24.2335 154.063 24.6954 151.296 24.6954H141.931V16.9196H149.31C150.469 16.9196 151.456 16.7756 152.272 16.4876C153.1 16.1876 153.732 15.7136 154.17 15.0657C154.619 14.4177 154.844 13.5717 154.844 12.5277C154.844 11.4717 154.619 10.6138 154.17 9.95378C153.732 9.28179 153.1 8.7898 152.272 8.47781C151.456 8.15381 150.469 7.99182 149.31 7.99182H145.833V36.8632H135.972ZM157.256 19.9435L166.337 36.8632H155.624L146.756 19.9435H157.256Z" fill="white"/>
<path d="M163.928 48.811V56.9761H162.987L158.612 50.5653H158.533V56.9761H157.561V48.811H158.502L162.893 55.2379H162.971V48.811H163.928Z" fill="white"/>
<path d="M155.926 52.8939C155.926 53.755 155.774 54.4993 155.468 55.1265C155.162 55.7538 154.743 56.2375 154.209 56.5777C153.676 56.918 153.067 57.0881 152.382 57.0881C151.698 57.0881 151.089 56.918 150.556 56.5777C150.022 56.2375 149.603 55.7538 149.297 55.1265C148.991 54.4993 148.838 53.755 148.838 52.8939C148.838 52.0327 148.991 51.2885 149.297 50.6612C149.603 50.034 150.022 49.5502 150.556 49.21C151.089 48.8698 151.698 48.6997 152.382 48.6997C153.067 48.6997 153.676 48.8698 154.209 49.21C154.743 49.5502 155.162 50.034 155.468 50.6612C155.774 51.2885 155.926 52.0327 155.926 52.8939ZM154.986 52.8939C154.986 52.1869 154.869 51.5902 154.637 51.1038C154.407 50.6174 154.094 50.2493 153.7 49.9994C153.308 49.7496 152.869 49.6247 152.382 49.6247C151.896 49.6247 151.456 49.7496 151.061 49.9994C150.669 50.2493 150.357 50.6174 150.124 51.1038C149.894 51.5902 149.779 52.1869 149.779 52.8939C149.779 53.6009 149.894 54.1976 150.124 54.684C150.357 55.1704 150.669 55.5385 151.061 55.7883C151.456 56.0382 151.896 56.1631 152.382 56.1631C152.869 56.1631 153.308 56.0382 153.7 55.7883C154.094 55.5385 154.407 55.1704 154.637 54.684C154.869 54.1976 154.986 53.6009 154.986 52.8939Z" fill="white"/>
<path d="M146.503 50.8526C146.456 50.4486 146.265 50.135 145.931 49.9117C145.596 49.6884 145.186 49.5768 144.7 49.5768C144.344 49.5768 144.033 49.6353 143.766 49.7522C143.503 49.8692 143.296 50.03 143.147 50.2346C143.001 50.4393 142.928 50.6719 142.928 50.9323C142.928 51.1503 142.978 51.3377 143.08 51.4945C143.185 51.6487 143.318 51.7776 143.48 51.8812C143.642 51.9822 143.812 52.0659 143.99 52.1324C144.168 52.1962 144.331 52.248 144.48 52.2879L145.295 52.5111C145.505 52.567 145.737 52.644 145.993 52.7424C146.252 52.8407 146.499 52.9749 146.734 53.1451C146.972 53.3125 147.168 53.5278 147.322 53.7909C147.477 54.0541 147.554 54.377 147.554 54.7597C147.554 55.2009 147.44 55.5996 147.213 55.9558C146.988 56.3119 146.658 56.595 146.225 56.805C145.793 57.015 145.269 57.12 144.653 57.12C144.078 57.12 143.58 57.0256 143.159 56.8369C142.741 56.6482 142.411 56.385 142.171 56.0475C141.933 55.7099 141.798 55.3179 141.767 54.8714H142.771C142.797 55.1797 142.899 55.4348 143.077 55.6368C143.257 55.8362 143.484 55.985 143.759 56.0834C144.036 56.1791 144.334 56.2269 144.653 56.2269C145.024 56.2269 145.357 56.1658 145.652 56.0435C145.948 55.9186 146.181 55.7458 146.354 55.5252C146.526 55.3019 146.613 55.0415 146.613 54.7438C146.613 54.4727 146.538 54.2521 146.389 54.082C146.24 53.9119 146.044 53.7736 145.801 53.6673C145.558 53.561 145.295 53.468 145.013 53.3883L144.025 53.1012C143.398 52.9178 142.901 52.656 142.535 52.3158C142.17 51.9756 141.987 51.5304 141.987 50.9802C141.987 50.523 142.108 50.1243 142.351 49.7841C142.597 49.4413 142.926 49.1755 143.339 48.9868C143.755 48.7954 144.219 48.6997 144.731 48.6997C145.248 48.6997 145.708 48.7941 146.111 48.9828C146.513 49.1688 146.832 49.424 147.067 49.7483C147.305 50.0725 147.431 50.4406 147.444 50.8526H146.503Z" fill="white"/>
<path d="M134.98 56.9761H133.961L136.909 48.811H137.913L140.861 56.9761H139.842L137.442 50.1028H137.38L134.98 56.9761ZM135.357 53.7866H139.465V54.6637H135.357V53.7866Z" fill="white"/>
<path d="M128.053 56.9761V48.811H132.898V49.6881H129.025V52.447H132.647V53.3242H129.025V56.099H132.961V56.9761H128.053Z" fill="white"/>
<path d="M120.992 56.9761V48.811H123.705C124.332 48.811 124.847 48.92 125.249 49.138C125.652 49.3532 125.95 49.6496 126.143 50.027C126.337 50.4044 126.433 50.8337 126.433 51.3148C126.433 51.7959 126.337 52.2225 126.143 52.5946C125.95 52.9667 125.653 53.259 125.253 53.4717C124.853 53.6816 124.342 53.7866 123.72 53.7866H121.525V52.8936H123.689C124.118 52.8936 124.463 52.8298 124.724 52.7022C124.988 52.5746 125.179 52.3939 125.296 52.16C125.417 51.9234 125.477 51.6417 125.477 51.3148C125.477 50.9879 125.417 50.7021 125.296 50.4576C125.176 50.2131 124.984 50.0244 124.72 49.8915C124.456 49.7559 124.107 49.6881 123.673 49.6881H121.964V56.9761H120.992ZM124.771 53.3082L126.747 56.9761H125.618L123.673 53.3082H124.771Z" fill="white"/>
<path d="M116.252 52.8939C116.252 53.755 116.099 54.4993 115.793 55.1265C115.487 55.7538 115.068 56.2375 114.535 56.5777C114.001 56.918 113.392 57.0881 112.708 57.0881C112.023 57.0881 111.414 56.918 110.881 56.5777C110.348 56.2375 109.928 55.7538 109.622 55.1265C109.316 54.4993 109.164 53.755 109.164 52.8939C109.164 52.0327 109.316 51.2885 109.622 50.6612C109.928 50.034 110.348 49.5502 110.881 49.21C111.414 48.8698 112.023 48.6997 112.708 48.6997C113.392 48.6997 114.001 48.8698 114.535 49.21C115.068 49.5502 115.487 50.034 115.793 50.6612C116.099 51.2885 116.252 52.0327 116.252 52.8939ZM115.311 52.8939C115.311 52.1869 115.194 51.5902 114.962 51.1038C114.732 50.6174 114.42 50.2493 114.025 49.9994C113.633 49.7496 113.194 49.6247 112.708 49.6247C112.221 49.6247 111.781 49.7496 111.386 49.9994C110.994 50.2493 110.682 50.6174 110.449 51.1038C110.219 51.5902 110.104 52.1869 110.104 52.8939C110.104 53.6009 110.219 54.1976 110.449 54.684C110.682 55.1704 110.994 55.5385 111.386 55.7883C111.781 56.0382 112.221 56.1631 112.708 56.1631C113.194 56.1631 113.633 56.0382 114.025 55.7883C114.42 55.5385 114.732 55.1704 114.962 54.684C115.194 54.1976 115.311 53.6009 115.311 52.8939Z" fill="white"/>
<path d="M107.532 48.811V56.9761H106.591L102.216 50.5653H102.137V56.9761H101.165V48.811H102.106L106.497 55.2379H106.575V48.811H107.532Z" fill="white"/>
<path d="M90.5381 49.6881V48.811H96.5598V49.6881H94.0351V56.9761H93.0628V49.6881H90.5381Z" fill="white"/>
<path d="M88.3277 50.8526C88.2806 50.4486 88.0898 50.135 87.7553 49.9117C87.4207 49.6884 87.0104 49.5768 86.5243 49.5768C86.1688 49.5768 85.8578 49.6353 85.5912 49.7522C85.3272 49.8692 85.1208 50.03 84.9718 50.2346C84.8254 50.4393 84.7522 50.6719 84.7522 50.9323C84.7522 51.1503 84.8032 51.3377 84.9051 51.4945C85.0097 51.6487 85.143 51.7776 85.305 51.8812C85.4671 51.9822 85.6369 52.0659 85.8147 52.1324C85.9924 52.1962 86.1557 52.248 86.3047 52.2879L87.1202 52.5111C87.3293 52.567 87.5619 52.644 87.818 52.7424C88.0767 52.8407 88.3237 52.9749 88.559 53.1451C88.7968 53.3125 88.9928 53.5278 89.147 53.7909C89.3012 54.0541 89.3783 54.377 89.3783 54.7597C89.3783 55.2009 89.2646 55.5996 89.0372 55.9558C88.8125 56.3119 88.4832 56.595 88.0493 56.805C87.6181 57.015 87.094 57.12 86.4772 57.12C85.9022 57.12 85.4043 57.0256 84.9835 56.8369C84.5654 56.6482 84.2361 56.385 83.9956 56.0475C83.7578 55.7099 83.6232 55.3179 83.5918 54.8714H84.5954C84.6216 55.1797 84.7235 55.4348 84.9012 55.6368C85.0816 55.8362 85.3089 55.985 85.5834 56.0834C85.8604 56.1791 86.1584 56.2269 86.4772 56.2269C86.8484 56.2269 87.1816 56.1658 87.4769 56.0435C87.7723 55.9186 88.0062 55.7458 88.1787 55.5252C88.3512 55.3019 88.4374 55.0415 88.4374 54.7438C88.4374 54.4727 88.3629 54.2521 88.214 54.082C88.065 53.9119 87.869 53.7736 87.6259 53.6673C87.3828 53.561 87.1202 53.468 86.8379 53.3883L85.85 53.1012C85.2227 52.9178 84.7261 52.656 84.3602 52.3158C83.9943 51.9756 83.8113 51.5304 83.8113 50.9802C83.8113 50.523 83.9329 50.1243 84.1759 49.7841C84.4216 49.4413 84.7509 49.1755 85.1639 48.9868C85.5794 48.7954 86.0434 48.6997 86.5556 48.6997C87.0731 48.6997 87.5331 48.7941 87.9356 48.9828C88.3381 49.1688 88.657 49.424 88.8922 49.7483C89.13 50.0725 89.2555 50.4406 89.2686 50.8526H88.3277Z" fill="white"/>
<path d="M81.0234 48.811H81.9957V54.2172C81.9957 54.7754 81.8663 55.2737 81.6076 55.7123C81.3514 56.1482 80.9895 56.4924 80.5216 56.7449C80.0538 56.9947 79.5049 57.1197 78.875 57.1197C78.2452 57.1197 77.6963 56.9947 77.2285 56.7449C76.7606 56.4924 76.3973 56.1482 76.1386 55.7123C75.8825 55.2737 75.7544 54.7754 75.7544 54.2172V48.811H76.7267V54.1375C76.7267 54.5362 76.8129 54.891 76.9854 55.202C77.1579 55.5103 77.4036 55.7535 77.7224 55.9316C78.0439 56.107 78.4281 56.1947 78.875 56.1947C79.322 56.1947 79.7062 56.107 80.0276 55.9316C80.3491 55.7535 80.5948 55.5103 80.7647 55.202C80.9372 54.891 81.0234 54.5362 81.0234 54.1375V48.811Z" fill="white"/>
<path d="M72.8333 48.811H73.8055V54.6478C73.8055 55.1687 73.7115 55.6113 73.5233 55.9754C73.3351 56.3396 73.0698 56.616 72.7274 56.8047C72.3851 56.9934 71.9812 57.0878 71.516 57.0878C71.0769 57.0878 70.6862 57.0067 70.3438 56.8446C70.0014 56.6798 69.7322 56.4459 69.5362 56.1429C69.3402 55.8399 69.2422 55.4797 69.2422 55.0624H70.1988C70.1988 55.2937 70.255 55.4957 70.3673 55.6684C70.4823 55.8385 70.6392 55.9714 70.8378 56.0671C71.0364 56.1628 71.2625 56.2106 71.516 56.2106C71.7957 56.2106 72.0335 56.1508 72.2295 56.0312C72.4256 55.9116 72.5745 55.7362 72.6765 55.505C72.781 55.2711 72.8333 54.9853 72.8333 54.6478V48.811Z" fill="white"/>
</svg>
